<svg xmlns="http://www.w3.org/2000/svg" viewBox="0 0 399.41 100"><defs><style>.cls-1{fill:#fff;}</style></defs><title>logo</title><g id="OBJECTS"><path class="cls-1" d="M96.9,27.83c0-.47.2-.67.66-.67h16.83c8.25,0,13.44,3.4,15.64,10.18.8,2.53,1.2,6.66,1.2,12.44s-.4,9.92-1.2,12.44c-2.2,6.79-7.39,10.18-15.64,10.18H97.56c-.46,0-.66-.2-.66-.66Zm9.78,35.46a.35.35,0,0,0,.4.4h5.12q6.89,0,8.38-5c.47-1.4.73-4.33.73-8.92s-.26-7.51-.73-8.91q-1.5-5-8.38-5h-5.12a.35.35,0,0,0-.4.4Z"/><path class="cls-1" d="M139.48,72.4c-.47,0-.67-.2-.67-.66V27.83c0-.47.2-.67.67-.67H157c4.86,0,8.72,1.34,11.51,4a13.72,13.72,0,0,1,4.26,10.57,13.81,13.81,0,0,1-4.26,10.52c-2.86,2.66-6.65,4-11.51,4h-8a.35.35,0,0,0-.4.4v15.1c0,.46-.2.66-.66.66Zm17-24.61c4.06,0,6.59-2.33,6.59-6.06s-2.53-6.12-6.59-6.12H149a.35.35,0,0,0-.4.4V47.39a.35.35,0,0,0,.4.4Z"/><path class="cls-1" d="M196.69,27.83c0-.47.2-.67.67-.67h25.88c.46,0,.66.2.66.67v2.26c0,.47-.2.67-.66.67H200.88a.35.35,0,0,0-.39.4v16.1a.34.34,0,0,0,.39.39h19.23c.47,0,.67.2.67.67v2.26c0,.47-.2.67-.67.67H200.88a.35.35,0,0,0-.39.4V68.41a.35.35,0,0,0,.39.4h22.36c.46,0,.66.2.66.67v2.26c0,.46-.2.66-.66.66H197.36c-.47,0-.67-.2-.67-.66Z"/><path class="cls-1" d="M238.74,71.54a20.44,20.44,0,0,1-6.58-3.73.59.59,0,0,1-.07-.93l1.6-2c.33-.34.59-.4.93-.07a20.54,20.54,0,0,0,13,4.66c7.18,0,11.71-3.66,11.71-9.25,0-4.79-2.93-7.78-10.85-8.78l-2.06-.27c-8.71-1.13-13-5.12-13-12,0-7.79,5.52-12.71,14.24-12.71a21.48,21.48,0,0,1,12.91,3.79c.39.2.46.53.13.93l-1.33,2.07a.65.65,0,0,1-.93.13,21.2,21.2,0,0,0-11-3.33c-6.39,0-10.25,3.53-10.25,8.85,0,4.79,3.2,7.58,10.65,8.58l2.06.27C258.7,48.92,263.09,53,263.09,60c0,7.92-5.79,13.11-16,13.11A24.21,24.21,0,0,1,238.74,71.54Z"/><path class="cls-1" d="M282.52,72.4c-.47,0-.67-.2-.67-.66V31.16a.35.35,0,0,0-.4-.4h-13c-.46,0-.66-.2-.66-.67V27.83c0-.47.2-.67.66-.67h30.67c.47,0,.67.2.67.67v2.26c0,.47-.2.67-.67.67H286a.35.35,0,0,0-.39.4V71.74c0,.46-.2.66-.67.66Z"/><path class="cls-1" d="M314.39,27.83a.78.78,0,0,1,.8-.67h2.39a.78.78,0,0,1,.8.67l15.7,43.91c.13.46,0,.66-.47.66H331a.77.77,0,0,1-.87-.66l-4-11.11H306.47l-4,11.11a.9.9,0,0,1-.87.66H299c-.47,0-.6-.2-.47-.66ZM307.73,57H324.9l-8.45-23.68h-.2Z"/><path class="cls-1" d="M347.25,72.4c-.46,0-.66-.2-.66-.66V31.16a.35.35,0,0,0-.4-.4h-13c-.46,0-.66-.2-.66-.67V27.83c0-.47.2-.67.66-.67h30.67c.47,0,.66.2.66.67v2.26c0,.47-.19.67-.66.67h-13a.35.35,0,0,0-.4.4V71.74c0,.46-.2.66-.66.66Z"/><path class="cls-1" d="M372.2,27.83c0-.47.2-.67.67-.67h25.88c.46,0,.66.2.66.67v2.26c0,.47-.2.67-.66.67H376.4a.35.35,0,0,0-.4.4v16.1a.35.35,0,0,0,.4.39h19.22c.47,0,.67.2.67.67v2.26c0,.47-.2.67-.67.67H376.4a.35.35,0,0,0-.4.4V68.41a.35.35,0,0,0,.4.4h22.35c.46,0,.66.2.66.67v2.26c0,.46-.2.66-.66.66H372.87c-.47,0-.67-.2-.67-.66Z"/><rect class="cls-1" x="43.8" y="11.49" width="25.2" height="4.82"/><polygon class="cls-1" points="29.59 23.28 43.8 16.31 43.8 11.49 29.59 18.46 29.59 23.28"/><rect class="cls-1" x="43.8" y="19.73" width="25.2" height="4.82"/><polygon class="cls-1" points="29.59 31.52 43.8 24.55 43.8 19.73 29.59 26.7 29.59 31.52"/><rect class="cls-1" x="43.8" y="27.98" width="25.2" height="4.82"/><polygon class="cls-1" points="29.59 39.77 43.8 32.8 43.8 27.98 29.59 34.95 29.59 39.77"/><rect class="cls-1" x="43.8" y="36.22" width="25.2" height="4.82"/><polygon class="cls-1" points="29.59 48.01 43.8 41.04 43.8 36.22 29.59 43.19 29.59 48.01"/><rect class="cls-1" x="43.8" y="44.46" width="25.2" height="4.82"/><polygon class="cls-1" points="29.59 56.25 43.8 49.28 43.8 44.46 29.59 51.43 29.59 56.25"/><rect class="cls-1" x="43.8" y="52.7" width="25.2" height="4.82"/><polygon class="cls-1" points="29.59 64.49 43.8 57.52 43.8 52.7 29.59 59.67 29.59 64.49"/><rect class="cls-1" x="43.8" y="60.94" width="25.2" height="4.82"/><polygon class="cls-1" points="29.59 72.73 43.8 65.76 43.8 60.94 29.59 67.91 29.59 72.73"/><rect class="cls-1" x="43.8" y="69.18" width="25.2" height="4.82"/><polygon class="cls-1" points="29.59 80.97 43.8 74 43.8 69.18 29.59 76.15 29.59 80.97"/><polygon class="cls-1" points="29.59 78.02 29.59 98.94 31.7 98.94 31.7 75.91 29.59 78.02"/><polygon class="cls-1" points="21.14 34.73 1.05 27.76 1.05 22.94 21.14 29.91 21.14 34.73"/><polygon class="cls-1" points="21.14 42.97 1.05 36 1.05 31.18 21.14 38.15 21.14 42.97"/><polygon class="cls-1" points="21.14 51.21 1.05 44.24 1.05 39.42 21.14 46.39 21.14 51.21"/><polygon class="cls-1" points="21.14 59.45 1.05 52.48 1.05 47.66 21.14 54.63 21.14 59.45"/><polygon class="cls-1" points="21.14 67.69 1.05 60.72 1.05 55.9 21.14 62.87 21.14 67.69"/><polygon class="cls-1" points="21.14 75.94 1.05 68.97 1.05 64.14 21.14 71.11 21.14 75.94"/><polygon class="cls-1" points="21.14 84.18 1.05 77.21 1.05 72.39 21.14 79.36 21.14 84.18"/><polygon class="cls-1" points="21.14 92.42 1.05 85.45 1.05 80.63 21.14 87.6 21.14 92.42"/><polygon class="cls-1" points="19.03 88.28 19.03 99.8 21.14 99.8 21.14 90.19 19.03 88.28"/><polygon class="cls-1" points="0 0 0 100 21.14 100 21.14 97.89 2.11 97.89 2.11 2.11 67.68 2.11 67.68 97.89 29.59 97.89 29.59 100 69.79 100 69.79 0 0 0"/></g></svg>